<svg xmlns="http://www.w3.org/2000/svg" xmlns:xlink="http://www.w3.org/1999/xlink" width="3440" height="1440" viewBox="0 0 3440 1440">
  <defs>
    <clipPath id="clip-Custom_Size_1">
      <rect width="3440" height="1440"/>
    </clipPath>
  </defs>
  <g id="Custom_Size_1" data-name="Custom Size – 1" clip-path="url(#clip-Custom_Size_1)">
    <rect width="3440" height="1440" fill="#fff"/>
    <path id="Icon_awesome-plus" data-name="Icon awesome-plus" d="M101.227,45.077H66.187V10.037A7.788,7.788,0,0,0,58.4,2.25H50.614a7.788,7.788,0,0,0-7.787,7.787v35.04H7.787A7.788,7.788,0,0,0,0,52.864V60.65a7.788,7.788,0,0,0,7.787,7.787h35.04v35.04a7.788,7.788,0,0,0,7.787,7.787H58.4a7.788,7.788,0,0,0,7.787-7.787V68.437h35.04a7.788,7.788,0,0,0,7.787-7.787V52.864A7.788,7.788,0,0,0,101.227,45.077Z" transform="translate(181 196.809)"/>
    <path id="Icon_awesome-plus-2" data-name="Icon awesome-plus" d="M101.227,45.077H66.187V10.037A7.788,7.788,0,0,0,58.4,2.25H50.614a7.788,7.788,0,0,0-7.787,7.787v35.04H7.787A7.788,7.788,0,0,0,0,52.864V60.65a7.788,7.788,0,0,0,7.787,7.787h35.04v35.04a7.788,7.788,0,0,0,7.787,7.787H58.4a7.788,7.788,0,0,0,7.787-7.787V68.437h35.04a7.788,7.788,0,0,0,7.787-7.787V52.864A7.788,7.788,0,0,0,101.227,45.077Z" transform="translate(706.268 653.53)"/>
    <path id="Icon_awesome-plus-3" data-name="Icon awesome-plus" d="M101.227,45.077H66.187V10.037A7.788,7.788,0,0,0,58.4,2.25H50.614a7.788,7.788,0,0,0-7.787,7.787v35.04H7.787A7.788,7.788,0,0,0,0,52.864V60.65a7.788,7.788,0,0,0,7.787,7.787h35.04v35.04a7.788,7.788,0,0,0,7.787,7.787H58.4a7.788,7.788,0,0,0,7.787-7.787V68.437h35.04a7.788,7.788,0,0,0,7.787-7.787V52.864A7.788,7.788,0,0,0,101.227,45.077Z" transform="translate(1796.318 286.669)"/>
    <path id="Icon_awesome-plus-4" data-name="Icon awesome-plus" d="M101.227,45.077H66.187V10.037A7.788,7.788,0,0,0,58.4,2.25H50.614a7.788,7.788,0,0,0-7.787,7.787v35.04H7.787A7.788,7.788,0,0,0,0,52.864V60.65a7.788,7.788,0,0,0,7.787,7.787h35.04v35.04a7.788,7.788,0,0,0,7.787,7.787H58.4a7.788,7.788,0,0,0,7.787-7.787V68.437h35.04a7.788,7.788,0,0,0,7.787-7.787V52.864A7.788,7.788,0,0,0,101.227,45.077Z" transform="translate(588.947 196.809)"/>
    <path id="Icon_awesome-plus-5" data-name="Icon awesome-plus" d="M101.227,45.077H66.187V10.037A7.788,7.788,0,0,0,58.4,2.25H50.614a7.788,7.788,0,0,0-7.787,7.787v35.04H7.787A7.788,7.788,0,0,0,0,52.864V60.65a7.788,7.788,0,0,0,7.787,7.787h35.04v35.04a7.788,7.788,0,0,0,7.787,7.787H58.4a7.788,7.788,0,0,0,7.787-7.787V68.437h35.04a7.788,7.788,0,0,0,7.787-7.787V52.864A7.788,7.788,0,0,0,101.227,45.077Z" transform="translate(156 962.423)"/>
    <path id="Icon_awesome-plus-6" data-name="Icon awesome-plus" d="M101.227,45.077H66.187V10.037A7.788,7.788,0,0,0,58.4,2.25H50.614a7.788,7.788,0,0,0-7.787,7.787v35.04H7.787A7.788,7.788,0,0,0,0,52.864V60.65a7.788,7.788,0,0,0,7.787,7.787h35.04v35.04a7.788,7.788,0,0,0,7.787,7.787H58.4a7.788,7.788,0,0,0,7.787-7.787V68.437h35.04a7.788,7.788,0,0,0,7.787-7.787V52.864A7.788,7.788,0,0,0,101.227,45.077Z" transform="translate(1252.036 882.423)"/>
    <path id="Icon_awesome-plus-7" data-name="Icon awesome-plus" d="M101.227,45.077H66.187V10.037A7.788,7.788,0,0,0,58.4,2.25H50.614a7.788,7.788,0,0,0-7.787,7.787v35.04H7.787A7.788,7.788,0,0,0,0,52.864V60.65a7.788,7.788,0,0,0,7.787,7.787h35.04v35.04a7.788,7.788,0,0,0,7.787,7.787H58.4a7.788,7.788,0,0,0,7.787-7.787V68.437h35.04a7.788,7.788,0,0,0,7.787-7.787V52.864A7.788,7.788,0,0,0,101.227,45.077Z" transform="translate(1332.973 180.236)"/>
    <path id="Icon_awesome-plus-8" data-name="Icon awesome-plus" d="M101.227,45.077H66.187V10.037A7.788,7.788,0,0,0,58.4,2.25H50.614a7.788,7.788,0,0,0-7.787,7.787v35.04H7.787A7.788,7.788,0,0,0,0,52.864V60.65a7.788,7.788,0,0,0,7.787,7.787h35.04v35.04a7.788,7.788,0,0,0,7.787,7.787H58.4a7.788,7.788,0,0,0,7.787-7.787V68.437h35.04a7.788,7.788,0,0,0,7.787-7.787V52.864A7.788,7.788,0,0,0,101.227,45.077Z" transform="translate(1809.684 712.887)"/>
    <path id="Icon_awesome-minus" data-name="Icon awesome-minus" d="M113.787,0H8.753A8.754,8.754,0,0,0,0,8.753v8.753a8.754,8.754,0,0,0,8.753,8.753H113.787a8.754,8.754,0,0,0,8.753-8.753V8.753A8.754,8.754,0,0,0,113.787,0Z" transform="translate(503.769 83.882) rotate(-8)"/>
    <path id="Icon_awesome-minus-2" data-name="Icon awesome-minus" d="M113.787,0H8.753A8.754,8.754,0,0,0,0,8.753v8.753a8.754,8.754,0,0,0,8.753,8.753H113.787a8.754,8.754,0,0,0,8.753-8.753V8.753A8.754,8.754,0,0,0,113.787,0Z" transform="matrix(0.914, 0.407, -0.407, 0.914, 406.637, 778.958)"/>
    <path id="Icon_awesome-minus-3" data-name="Icon awesome-minus" d="M113.787,14.625H8.753A8.754,8.754,0,0,0,0,23.378v8.753a8.754,8.754,0,0,0,8.753,8.753H113.787a8.754,8.754,0,0,0,8.753-8.753V23.378A8.754,8.754,0,0,0,113.787,14.625Z" transform="translate(1062.703 444.832)"/>
    <path id="Icon_awesome-minus-4" data-name="Icon awesome-minus" d="M113.787,0H8.753A8.711,8.711,0,0,0,0,8.667v8.667A8.711,8.711,0,0,0,8.753,26H113.787a8.711,8.711,0,0,0,8.753-8.667V8.667A8.711,8.711,0,0,0,113.787,0Z" transform="translate(1491.575 722.254) rotate(-22)"/>
    <path id="Icon_awesome-minus-5" data-name="Icon awesome-minus" d="M113.787,0H8.753A8.754,8.754,0,0,0,0,8.753v8.753a8.754,8.754,0,0,0,8.753,8.753H113.787a8.754,8.754,0,0,0,8.753-8.753V8.753A8.754,8.754,0,0,0,113.787,0Z" transform="translate(692.63 884.689) rotate(49)"/>
    <path id="Icon_awesome-minus-6" data-name="Icon awesome-minus" d="M113.787,14.625H8.753A8.754,8.754,0,0,0,0,23.378v8.753a8.754,8.754,0,0,0,8.753,8.753H113.787a8.754,8.754,0,0,0,8.753-8.753V23.378A8.754,8.754,0,0,0,113.787,14.625Z" transform="translate(1962.828 965.789)"/>
    <path id="Icon_awesome-times" data-name="Icon awesome-times" d="M65.427,52.189,92.4,25.713a8.214,8.214,0,0,0,0-11.768L86.407,8.062a8.593,8.593,0,0,0-11.99,0L47.442,34.537,20.468,8.062a8.593,8.593,0,0,0-11.99,0L2.483,13.946a8.214,8.214,0,0,0,0,11.768L29.457,52.189,2.483,78.664a8.214,8.214,0,0,0,0,11.768l5.995,5.884a8.593,8.593,0,0,0,11.99,0L47.442,69.84,74.417,96.316a8.593,8.593,0,0,0,11.99,0L92.4,90.432a8.214,8.214,0,0,0,0-11.768Z" transform="translate(61 568)"/>
    <path id="Icon_awesome-times-2" data-name="Icon awesome-times" d="M65.427,52.189,92.4,25.713a8.214,8.214,0,0,0,0-11.768L86.407,8.062a8.593,8.593,0,0,0-11.99,0L47.442,34.537,20.468,8.062a8.593,8.593,0,0,0-11.99,0L2.483,13.946a8.214,8.214,0,0,0,0,11.768L29.457,52.189,2.483,78.664a8.214,8.214,0,0,0,0,11.768l5.995,5.884a8.593,8.593,0,0,0,11.99,0L47.442,69.84,74.417,96.316a8.593,8.593,0,0,0,11.99,0L92.4,90.432a8.214,8.214,0,0,0,0-11.768Z" transform="translate(519 448.962)"/>
    <path id="Icon_awesome-times-3" data-name="Icon awesome-times" d="M65.427,52.189,92.4,25.713a8.214,8.214,0,0,0,0-11.768L86.407,8.062a8.593,8.593,0,0,0-11.99,0L47.442,34.537,20.468,8.062a8.593,8.593,0,0,0-11.99,0L2.483,13.946a8.214,8.214,0,0,0,0,11.768L29.457,52.189,2.483,78.664a8.214,8.214,0,0,0,0,11.768l5.995,5.884a8.593,8.593,0,0,0,11.99,0L47.442,69.84,74.417,96.316a8.593,8.593,0,0,0,11.99,0L92.4,90.432a8.214,8.214,0,0,0,0-11.768Z" transform="translate(995.046 130.375)"/>
    <path id="Icon_awesome-times-4" data-name="Icon awesome-times" d="M65.427,52.189,92.4,25.713a8.214,8.214,0,0,0,0-11.768L86.407,8.062a8.593,8.593,0,0,0-11.99,0L47.442,34.537,20.468,8.062a8.593,8.593,0,0,0-11.99,0L2.483,13.946a8.214,8.214,0,0,0,0,11.768L29.457,52.189,2.483,78.664a8.214,8.214,0,0,0,0,11.768l5.995,5.884a8.593,8.593,0,0,0,11.99,0L47.442,69.84,74.417,96.316a8.593,8.593,0,0,0,11.99,0L92.4,90.432a8.214,8.214,0,0,0,0-11.768Z" transform="translate(884.984 1000.562)"/>
    <path id="Icon_awesome-times-5" data-name="Icon awesome-times" d="M65.427,52.189,92.4,25.713a8.214,8.214,0,0,0,0-11.768L86.407,8.062a8.593,8.593,0,0,0-11.99,0L47.442,34.537,20.468,8.062a8.593,8.593,0,0,0-11.99,0L2.483,13.946a8.214,8.214,0,0,0,0,11.768L29.457,52.189,2.483,78.664a8.214,8.214,0,0,0,0,11.768l5.995,5.884a8.593,8.593,0,0,0,11.99,0L47.442,69.84,74.417,96.316a8.593,8.593,0,0,0,11.99,0L92.4,90.432a8.214,8.214,0,0,0,0-11.768Z" transform="translate(2734.27 714.562)"/>
    <path id="Icon_awesome-times-6" data-name="Icon awesome-times" d="M65.427,52.189,92.4,25.713a8.214,8.214,0,0,0,0-11.768L86.407,8.062a8.593,8.593,0,0,0-11.99,0L47.442,34.537,20.468,8.062a8.593,8.593,0,0,0-11.99,0L2.483,13.946a8.214,8.214,0,0,0,0,11.768L29.457,52.189,2.483,78.664a8.214,8.214,0,0,0,0,11.768l5.995,5.884a8.593,8.593,0,0,0,11.99,0L47.442,69.84,74.417,96.316a8.593,8.593,0,0,0,11.99,0L92.4,90.432a8.214,8.214,0,0,0,0-11.768Z" transform="translate(2085.27 401.962)"/>
    <path id="Icon_awesome-times-7" data-name="Icon awesome-times" d="M65.427,52.189,92.4,25.713a8.214,8.214,0,0,0,0-11.768L86.407,8.062a8.593,8.593,0,0,0-11.99,0L47.442,34.537,20.468,8.062a8.593,8.593,0,0,0-11.99,0L2.483,13.946a8.214,8.214,0,0,0,0,11.768L29.457,52.189,2.483,78.664a8.214,8.214,0,0,0,0,11.768l5.995,5.884a8.593,8.593,0,0,0,11.99,0L47.442,69.84,74.417,96.316a8.593,8.593,0,0,0,11.99,0L92.4,90.432a8.214,8.214,0,0,0,0-11.768Z" transform="translate(1593.544 1047.562)"/>
    <path id="Icon_awesome-times-8" data-name="Icon awesome-times" d="M65.427,52.189,92.4,25.713a8.214,8.214,0,0,0,0-11.768L86.407,8.062a8.593,8.593,0,0,0-11.99,0L47.442,34.537,20.468,8.062a8.593,8.593,0,0,0-11.99,0L2.483,13.946a8.214,8.214,0,0,0,0,11.768L29.457,52.189,2.483,78.664a8.214,8.214,0,0,0,0,11.768l5.995,5.884a8.593,8.593,0,0,0,11.99,0L47.442,69.84,74.417,96.316a8.593,8.593,0,0,0,11.99,0L92.4,90.432a8.214,8.214,0,0,0,0-11.768Z" transform="translate(2024.27 82.375)"/>
    <path id="Icon_awesome-divide" data-name="Icon awesome-divide" d="M54.505,80.114A15.573,15.573,0,1,0,70.078,95.687,15.572,15.572,0,0,0,54.505,80.114Zm0-46.719A15.573,15.573,0,1,0,38.932,17.823,15.572,15.572,0,0,0,54.505,33.4Zm46.719,11.68H7.786A7.787,7.787,0,0,0,0,52.862v7.786a7.787,7.787,0,0,0,7.786,7.786h93.437a7.787,7.787,0,0,0,7.786-7.786V52.862A7.787,7.787,0,0,0,101.224,45.075Z" transform="translate(1539.4 189.813)"/>
    <path id="Icon_awesome-divide-2" data-name="Icon awesome-divide" d="M54.505,77.864A15.573,15.573,0,1,0,70.078,93.437,15.572,15.572,0,0,0,54.505,77.864Zm0-46.719A15.573,15.573,0,1,0,38.932,15.573,15.572,15.572,0,0,0,54.505,31.146Zm46.719,11.68H7.786A7.787,7.787,0,0,0,0,50.612V58.4a7.787,7.787,0,0,0,7.786,7.786h93.437A7.787,7.787,0,0,0,109.01,58.4V50.612A7.787,7.787,0,0,0,101.224,42.825Z" transform="matrix(0.883, 0.469, -0.469, 0.883, 799.691, 366.718)"/>
    <path id="Icon_awesome-divide-3" data-name="Icon awesome-divide" d="M54.505,77.864A15.573,15.573,0,1,0,70.078,93.437,15.572,15.572,0,0,0,54.505,77.864Zm0-46.719A15.573,15.573,0,1,0,38.932,15.573,15.572,15.572,0,0,0,54.505,31.146Zm46.719,11.68H7.786A7.787,7.787,0,0,0,0,50.612V58.4a7.787,7.787,0,0,0,7.786,7.786h93.437A7.787,7.787,0,0,0,109.01,58.4V50.612A7.787,7.787,0,0,0,101.224,42.825Z" transform="matrix(0.809, -0.588, 0.588, 0.809, 2404.643, 938.674)"/>
    <path id="Icon_awesome-divide-4" data-name="Icon awesome-divide" d="M54.505,77.864A15.573,15.573,0,1,0,70.078,93.437,15.572,15.572,0,0,0,54.505,77.864Zm0-46.719A15.573,15.573,0,1,0,38.932,15.573,15.572,15.572,0,0,0,54.505,31.146Zm46.719,11.68H7.786A7.787,7.787,0,0,0,0,50.612V58.4a7.787,7.787,0,0,0,7.786,7.786h93.437A7.787,7.787,0,0,0,109.01,58.4V50.612A7.787,7.787,0,0,0,101.224,42.825Z" transform="translate(177.929 18.645) rotate(20)"/>
    <path id="Icon_awesome-divide-5" data-name="Icon awesome-divide" d="M54.505,80.114A15.573,15.573,0,1,0,70.078,95.687,15.572,15.572,0,0,0,54.505,80.114Zm0-46.719A15.573,15.573,0,1,0,38.932,17.823,15.572,15.572,0,0,0,54.505,33.4Zm46.719,11.68H7.786A7.787,7.787,0,0,0,0,52.862v7.786a7.787,7.787,0,0,0,7.786,7.786h93.437a7.787,7.787,0,0,0,7.786-7.786V52.862A7.787,7.787,0,0,0,101.224,45.075Z" transform="translate(559 1024.937)"/>
    <path id="Icon_awesome-divide-6" data-name="Icon awesome-divide" d="M54.505,77.864A15.573,15.573,0,1,0,70.078,93.437,15.572,15.572,0,0,0,54.505,77.864Zm0-46.719A15.573,15.573,0,1,0,38.932,15.573,15.572,15.572,0,0,0,54.505,31.146Zm46.719,11.68H7.786A7.787,7.787,0,0,0,0,50.612V58.4a7.787,7.787,0,0,0,7.786,7.786h93.437A7.787,7.787,0,0,0,109.01,58.4V50.612A7.787,7.787,0,0,0,101.224,42.825Z" transform="matrix(0.391, 0.921, -0.921, 0.391, 1295.477, 579.433)"/>
    <path id="Icon_awesome-divide-7" data-name="Icon awesome-divide" d="M54.505,80.114A15.573,15.573,0,1,0,70.078,95.687,15.572,15.572,0,0,0,54.505,80.114Zm0-46.719A15.573,15.573,0,1,0,38.932,17.823,15.572,15.572,0,0,0,54.505,33.4Zm46.719,11.68H7.786A7.787,7.787,0,0,0,0,52.862v7.786a7.787,7.787,0,0,0,7.786,7.786h93.437a7.787,7.787,0,0,0,7.786-7.786V52.862A7.787,7.787,0,0,0,101.224,45.075Z" transform="translate(2703.27 142.408)"/>
    <path id="Icon_awesome-minus-7" data-name="Icon awesome-minus" d="M113.787,14.625H8.753A8.754,8.754,0,0,0,0,23.378v8.753a8.754,8.754,0,0,0,8.753,8.753H113.787a8.754,8.754,0,0,0,8.753-8.753V23.378A8.754,8.754,0,0,0,113.787,14.625Z" transform="translate(79.703 1295.832)"/>
    <path id="Icon_awesome-times-9" data-name="Icon awesome-times" d="M65.427,52.189,92.4,25.713a8.214,8.214,0,0,0,0-11.768L86.407,8.062a8.593,8.593,0,0,0-11.99,0L47.442,34.537,20.468,8.062a8.593,8.593,0,0,0-11.99,0L2.483,13.946a8.214,8.214,0,0,0,0,11.768L29.457,52.189,2.483,78.664a8.214,8.214,0,0,0,0,11.768l5.995,5.884a8.593,8.593,0,0,0,11.99,0L47.442,69.84,74.417,96.316a8.593,8.593,0,0,0,11.99,0L92.4,90.432a8.214,8.214,0,0,0,0-11.768Z" transform="translate(678 1271)"/>
    <path id="Icon_awesome-times-10" data-name="Icon awesome-times" d="M65.427,52.189,92.4,25.713a8.214,8.214,0,0,0,0-11.768L86.407,8.062a8.593,8.593,0,0,0-11.99,0L47.442,34.537,20.468,8.062a8.593,8.593,0,0,0-11.99,0L2.483,13.946a8.214,8.214,0,0,0,0,11.768L29.457,52.189,2.483,78.664a8.214,8.214,0,0,0,0,11.768l5.995,5.884a8.593,8.593,0,0,0,11.99,0L47.442,69.84,74.417,96.316a8.593,8.593,0,0,0,11.99,0L92.4,90.432a8.214,8.214,0,0,0,0-11.768Z" transform="translate(61 568)"/>
    <path id="Icon_awesome-divide-8" data-name="Icon awesome-divide" d="M54.505,80.114A15.573,15.573,0,1,0,70.078,95.687,15.572,15.572,0,0,0,54.505,80.114Zm0-46.719A15.573,15.573,0,1,0,38.932,17.823,15.572,15.572,0,0,0,54.505,33.4Zm46.719,11.68H7.786A7.787,7.787,0,0,0,0,52.862v7.786a7.787,7.787,0,0,0,7.786,7.786h93.437a7.787,7.787,0,0,0,7.786-7.786V52.862A7.787,7.787,0,0,0,101.224,45.075Z" transform="translate(1229.4 1211.813)"/>
    <path id="Icon_awesome-minus-8" data-name="Icon awesome-minus" d="M113.787,14.625H8.753A8.754,8.754,0,0,0,0,23.378v8.753a8.754,8.754,0,0,0,8.753,8.753H113.787a8.754,8.754,0,0,0,8.753-8.753V23.378A8.754,8.754,0,0,0,113.787,14.625Z" transform="translate(1905.703 1253.832)"/>
    <path id="Icon_awesome-minus-9" data-name="Icon awesome-minus" d="M113.787,0H8.753A8.711,8.711,0,0,0,0,8.667v8.667A8.711,8.711,0,0,0,8.753,26H113.787a8.711,8.711,0,0,0,8.753-8.667V8.667A8.711,8.711,0,0,0,113.787,0Z" transform="translate(1491.575 722.254) rotate(-22)"/>
    <path id="Icon_awesome-minus-10" data-name="Icon awesome-minus" d="M113.787,0H8.753A8.711,8.711,0,0,0,0,8.667v8.667A8.711,8.711,0,0,0,8.753,26H113.787a8.711,8.711,0,0,0,8.753-8.667V8.667A8.711,8.711,0,0,0,113.787,0Z" transform="translate(2419.692 412.462) rotate(30)"/>
    <path id="Icon_awesome-times-11" data-name="Icon awesome-times" d="M65.427,52.189,92.4,25.713a8.214,8.214,0,0,0,0-11.768L86.407,8.062a8.593,8.593,0,0,0-11.99,0L47.442,34.537,20.468,8.062a8.593,8.593,0,0,0-11.99,0L2.483,13.946a8.214,8.214,0,0,0,0,11.768L29.457,52.189,2.483,78.664a8.214,8.214,0,0,0,0,11.768l5.995,5.884a8.593,8.593,0,0,0,11.99,0L47.442,69.84,74.417,96.316a8.593,8.593,0,0,0,11.99,0L92.4,90.432a8.214,8.214,0,0,0,0-11.768Z" transform="translate(2245.27 714.375)"/>
    <path id="Icon_awesome-divide-9" data-name="Icon awesome-divide" d="M54.505,77.864A15.573,15.573,0,1,0,70.078,93.437,15.572,15.572,0,0,0,54.505,77.864Zm0-46.719A15.573,15.573,0,1,0,38.932,15.573,15.572,15.572,0,0,0,54.505,31.146Zm46.719,11.68H7.786A7.787,7.787,0,0,0,0,50.612V58.4a7.787,7.787,0,0,0,7.786,7.786h93.437A7.787,7.787,0,0,0,109.01,58.4V50.612A7.787,7.787,0,0,0,101.224,42.825Z" transform="matrix(0.391, 0.921, -0.921, 0.391, 3259.477, 1193.433)"/>
    <path id="Icon_awesome-plus-9" data-name="Icon awesome-plus" d="M101.227,45.077H66.187V10.037A7.788,7.788,0,0,0,58.4,2.25H50.614a7.788,7.788,0,0,0-7.787,7.787v35.04H7.787A7.788,7.788,0,0,0,0,52.864V60.65a7.788,7.788,0,0,0,7.787,7.787h35.04v35.04a7.788,7.788,0,0,0,7.787,7.787H58.4a7.788,7.788,0,0,0,7.787-7.787V68.437h35.04a7.788,7.788,0,0,0,7.787-7.787V52.864A7.788,7.788,0,0,0,101.227,45.077Z" transform="translate(2625.318 1199.669)"/>
    <path id="Icon_awesome-plus-10" data-name="Icon awesome-plus" d="M101.227,45.077H66.187V10.037A7.788,7.788,0,0,0,58.4,2.25H50.614a7.788,7.788,0,0,0-7.787,7.787v35.04H7.787A7.788,7.788,0,0,0,0,52.864V60.65a7.788,7.788,0,0,0,7.787,7.787h35.04v35.04a7.788,7.788,0,0,0,7.787,7.787H58.4a7.788,7.788,0,0,0,7.787-7.787V68.437h35.04a7.788,7.788,0,0,0,7.787-7.787V52.864A7.788,7.788,0,0,0,101.227,45.077Z" transform="translate(1796.318 286.669)"/>
    <path id="Icon_awesome-plus-11" data-name="Icon awesome-plus" d="M101.227,45.077H66.187V10.037A7.788,7.788,0,0,0,58.4,2.25H50.614a7.788,7.788,0,0,0-7.787,7.787v35.04H7.787A7.788,7.788,0,0,0,0,52.864V60.65a7.788,7.788,0,0,0,7.787,7.787h35.04v35.04a7.788,7.788,0,0,0,7.787,7.787H58.4a7.788,7.788,0,0,0,7.787-7.787V68.437h35.04a7.788,7.788,0,0,0,7.787-7.787V52.864A7.788,7.788,0,0,0,101.227,45.077Z" transform="translate(3111.318 231.669)"/>
    <path id="Icon_awesome-plus-12" data-name="Icon awesome-plus" d="M101.227,45.077H66.187V10.037A7.788,7.788,0,0,0,58.4,2.25H50.614a7.788,7.788,0,0,0-7.787,7.787v35.04H7.787A7.788,7.788,0,0,0,0,52.864V60.65a7.788,7.788,0,0,0,7.787,7.787h35.04v35.04a7.788,7.788,0,0,0,7.787,7.787H58.4a7.788,7.788,0,0,0,7.787-7.787V68.437h35.04a7.788,7.788,0,0,0,7.787-7.787V52.864A7.788,7.788,0,0,0,101.227,45.077Z" transform="translate(3111.318 231.669)"/>
    <path id="Icon_awesome-minus-11" data-name="Icon awesome-minus" d="M113.787,0H8.753A8.754,8.754,0,0,0,0,8.753v8.753a8.754,8.754,0,0,0,8.753,8.753H113.787a8.754,8.754,0,0,0,8.753-8.753V8.753A8.754,8.754,0,0,0,113.787,0Z" transform="translate(3189.63 691.689) rotate(49)"/>
  </g>
</svg>
