<svg xmlns="http://www.w3.org/2000/svg" xmlns:xlink="http://www.w3.org/1999/xlink" width="185" height="165" viewBox="0 0 185 165">
  <defs>
    <clipPath id="clip-Custom_Size_2">
      <rect width="185" height="165"/>
    </clipPath>
  </defs>
  <g id="Custom_Size_2" data-name="Custom Size – 2" clip-path="url(#clip-Custom_Size_2)">
    <rect width="185" height="165" fill="#fff"/>
    <path id="Icon_awesome-times" data-name="Icon awesome-times" d="M30.9,27.614l12.739-12.5a3.879,3.879,0,0,0,0-5.557L40.8,6.776a4.058,4.058,0,0,0-5.662,0L22.4,19.278,9.666,6.776A4.058,4.058,0,0,0,4,6.776L1.172,9.554a3.879,3.879,0,0,0,0,5.557l12.739,12.5L1.172,40.117a3.879,3.879,0,0,0,0,5.557L4,48.453a4.058,4.058,0,0,0,5.662,0L22.4,35.95l12.739,12.5a4.058,4.058,0,0,0,5.662,0l2.831-2.779a3.879,3.879,0,0,0,0-5.557Z" transform="translate(29 87.375)"/>
    <path id="Icon_awesome-minus" data-name="Icon awesome-minus" d="M45.324,14.625H3.486A3.413,3.413,0,0,0,0,17.958v3.333a3.413,3.413,0,0,0,3.486,3.333H45.324a3.413,3.413,0,0,0,3.486-3.333V17.958A3.413,3.413,0,0,0,45.324,14.625Z" transform="translate(111 23.602)"/>
    <path id="Icon_awesome-plus" data-name="Icon awesome-plus" d="M41.609,19.854h-14.4V5.451a3.2,3.2,0,0,0-3.2-3.2H20.8a3.2,3.2,0,0,0-3.2,3.2v14.4H3.2a3.2,3.2,0,0,0-3.2,3.2v3.2a3.2,3.2,0,0,0,3.2,3.2H17.6v14.4a3.2,3.2,0,0,0,3.2,3.2h3.2a3.2,3.2,0,0,0,3.2-3.2v-14.4h14.4a3.2,3.2,0,0,0,3.2-3.2v-3.2A3.2,3.2,0,0,0,41.609,19.854Z" transform="translate(29 18.236)"/>
    <path id="Icon_awesome-divide" data-name="Icon awesome-divide" d="M22.405,34.257a6.4,6.4,0,1,0,6.4,6.4A6.4,6.4,0,0,0,22.405,34.257Zm0-19.2a6.4,6.4,0,1,0-6.4-6.4A6.4,6.4,0,0,0,22.405,15.053Zm19.2,4.8H3.2a3.2,3.2,0,0,0-3.2,3.2v3.2a3.2,3.2,0,0,0,3.2,3.2H41.609a3.2,3.2,0,0,0,3.2-3.2v-3.2A3.2,3.2,0,0,0,41.609,19.854Z" transform="translate(111 89.75)"/>
    <line id="Line_1" data-name="Line 1" y2="135" transform="translate(92.5 15.5)" fill="none" stroke="#707070" stroke-width="6"/>
    <line id="Line_2" data-name="Line 2" x2="149" transform="translate(17.5 76.5)" fill="none" stroke="#707070" stroke-width="6"/>
    <g id="Rectangle_1" data-name="Rectangle 1" fill="rgba(255,255,255,0)" stroke="#707070" stroke-width="6">
      <rect width="185" height="165" stroke="none"/>
      <rect x="3" y="3" width="179" height="159" fill="none"/>
    </g>
  </g>
</svg>
