<svg xmlns="http://www.w3.org/2000/svg" xmlns:xlink="http://www.w3.org/1999/xlink" width="3440" height="1440" viewBox="0 0 3440 1440">
  <defs>
    <clipPath id="clip-Custom_Size_1">
      <rect width="3440" height="1440"/>
    </clipPath>
  </defs>
  <g id="Custom_Size_1" data-name="Custom Size – 1" clip-path="url(#clip-Custom_Size_1)">
    <rect width="3440" height="1440" fill="#fff"/>
    <path id="Icon_awesome-plus" data-name="Icon awesome-plus" d="M101.227,45.077H66.187V10.037A7.788,7.788,0,0,0,58.4,2.25H50.614a7.788,7.788,0,0,0-7.787,7.787v35.04H7.787A7.788,7.788,0,0,0,0,52.864V60.65a7.788,7.788,0,0,0,7.787,7.787h35.04v35.04a7.788,7.788,0,0,0,7.787,7.787H58.4a7.788,7.788,0,0,0,7.787-7.787V68.437h35.04a7.788,7.788,0,0,0,7.787-7.787V52.864A7.788,7.788,0,0,0,101.227,45.077Z" transform="translate(181 235.236)"/>
    <path id="Icon_awesome-plus-2" data-name="Icon awesome-plus" d="M101.227,45.077H66.187V10.037A7.788,7.788,0,0,0,58.4,2.25H50.614a7.788,7.788,0,0,0-7.787,7.787v35.04H7.787A7.788,7.788,0,0,0,0,52.864V60.65a7.788,7.788,0,0,0,7.787,7.787h35.04v35.04a7.788,7.788,0,0,0,7.787,7.787H58.4a7.788,7.788,0,0,0,7.787-7.787V68.437h35.04a7.788,7.788,0,0,0,7.787-7.787V52.864A7.788,7.788,0,0,0,101.227,45.077Z" transform="translate(930 789.236)"/>
    <path id="Icon_awesome-plus-3" data-name="Icon awesome-plus" d="M101.227,45.077H66.187V10.037A7.788,7.788,0,0,0,58.4,2.25H50.614a7.788,7.788,0,0,0-7.787,7.787v35.04H7.787A7.788,7.788,0,0,0,0,52.864V60.65a7.788,7.788,0,0,0,7.787,7.787h35.04v35.04a7.788,7.788,0,0,0,7.787,7.787H58.4a7.788,7.788,0,0,0,7.787-7.787V68.437h35.04a7.788,7.788,0,0,0,7.787-7.787V52.864A7.788,7.788,0,0,0,101.227,45.077Z" transform="translate(2398 344.236)"/>
    <path id="Icon_awesome-plus-4" data-name="Icon awesome-plus" d="M101.227,45.077H66.187V10.037A7.788,7.788,0,0,0,58.4,2.25H50.614a7.788,7.788,0,0,0-7.787,7.787v35.04H7.787A7.788,7.788,0,0,0,0,52.864V60.65a7.788,7.788,0,0,0,7.787,7.787h35.04v35.04a7.788,7.788,0,0,0,7.787,7.787H58.4a7.788,7.788,0,0,0,7.787-7.787V68.437h35.04a7.788,7.788,0,0,0,7.787-7.787V52.864A7.788,7.788,0,0,0,101.227,45.077Z" transform="translate(772 235.236)"/>
    <path id="Icon_awesome-plus-5" data-name="Icon awesome-plus" d="M101.227,45.077H66.187V10.037A7.788,7.788,0,0,0,58.4,2.25H50.614a7.788,7.788,0,0,0-7.787,7.787v35.04H7.787A7.788,7.788,0,0,0,0,52.864V60.65a7.788,7.788,0,0,0,7.787,7.787h35.04v35.04a7.788,7.788,0,0,0,7.787,7.787H58.4a7.788,7.788,0,0,0,7.787-7.787V68.437h35.04a7.788,7.788,0,0,0,7.787-7.787V52.864A7.788,7.788,0,0,0,101.227,45.077Z" transform="translate(156 1177.236)"/>
    <path id="Icon_awesome-plus-6" data-name="Icon awesome-plus" d="M101.227,45.077H66.187V10.037A7.788,7.788,0,0,0,58.4,2.25H50.614a7.788,7.788,0,0,0-7.787,7.787v35.04H7.787A7.788,7.788,0,0,0,0,52.864V60.65a7.788,7.788,0,0,0,7.787,7.787h35.04v35.04a7.788,7.788,0,0,0,7.787,7.787H58.4a7.788,7.788,0,0,0,7.787-7.787V68.437h35.04a7.788,7.788,0,0,0,7.787-7.787V52.864A7.788,7.788,0,0,0,101.227,45.077Z" transform="translate(1665 1097.236)"/>
    <path id="Icon_awesome-plus-7" data-name="Icon awesome-plus" d="M101.227,45.077H66.187V10.037A7.788,7.788,0,0,0,58.4,2.25H50.614a7.788,7.788,0,0,0-7.787,7.787v35.04H7.787A7.788,7.788,0,0,0,0,52.864V60.65a7.788,7.788,0,0,0,7.787,7.787h35.04v35.04a7.788,7.788,0,0,0,7.787,7.787H58.4a7.788,7.788,0,0,0,7.787-7.787V68.437h35.04a7.788,7.788,0,0,0,7.787-7.787V52.864A7.788,7.788,0,0,0,101.227,45.077Z" transform="translate(1774 180.236)"/>
    <path id="Icon_awesome-plus-8" data-name="Icon awesome-plus" d="M101.227,45.077H66.187V10.037A7.788,7.788,0,0,0,58.4,2.25H50.614a7.788,7.788,0,0,0-7.787,7.787v35.04H7.787A7.788,7.788,0,0,0,0,52.864V60.65a7.788,7.788,0,0,0,7.787,7.787h35.04v35.04a7.788,7.788,0,0,0,7.787,7.787H58.4a7.788,7.788,0,0,0,7.787-7.787V68.437h35.04a7.788,7.788,0,0,0,7.787-7.787V52.864A7.788,7.788,0,0,0,101.227,45.077Z" transform="translate(2416 861.236)"/>
    <path id="Icon_awesome-minus" data-name="Icon awesome-minus" d="M113.787,14.625H8.753A8.754,8.754,0,0,0,0,23.378v8.753a8.754,8.754,0,0,0,8.753,8.753H113.787a8.754,8.754,0,0,0,8.753-8.753V23.378A8.754,8.754,0,0,0,113.787,14.625Z" transform="translate(501.734 69.4) rotate(-8)"/>
    <path id="Icon_awesome-minus-2" data-name="Icon awesome-minus" d="M113.787,14.625H8.753A8.754,8.754,0,0,0,0,23.378v8.753a8.754,8.754,0,0,0,8.753,8.753H113.787a8.754,8.754,0,0,0,8.753-8.753V23.378A8.754,8.754,0,0,0,113.787,14.625Z" transform="matrix(0.914, 0.407, -0.407, 0.914, 412.586, 922.081)"/>
    <path id="Icon_awesome-minus-3" data-name="Icon awesome-minus" d="M113.787,14.625H8.753A8.754,8.754,0,0,0,0,23.378v8.753a8.754,8.754,0,0,0,8.753,8.753H113.787a8.754,8.754,0,0,0,8.753-8.753V23.378A8.754,8.754,0,0,0,113.787,14.625Z" transform="translate(1412 531.602)"/>
    <path id="Icon_awesome-minus-4" data-name="Icon awesome-minus" d="M113.787,14.625H8.753A8.754,8.754,0,0,0,0,23.378v8.753a8.754,8.754,0,0,0,8.753,8.753H113.787a8.754,8.754,0,0,0,8.753-8.753V23.378A8.754,8.754,0,0,0,113.787,14.625Z" transform="translate(2783 154.602)"/>
    <path id="Icon_awesome-minus-5" data-name="Icon awesome-minus" d="M113.787,14.625H8.753A8.711,8.711,0,0,0,0,23.292v8.667a8.711,8.711,0,0,0,8.753,8.667H113.787a8.711,8.711,0,0,0,8.753-8.667V23.292A8.711,8.711,0,0,0,113.787,14.625Z" transform="translate(1985.113 843.566) rotate(-22)"/>
    <path id="Icon_awesome-minus-6" data-name="Icon awesome-minus" d="M113.787,14.625H8.753A8.754,8.754,0,0,0,0,23.378v8.753a8.754,8.754,0,0,0,8.753,8.753H113.787a8.754,8.754,0,0,0,8.753-8.753V23.378A8.754,8.754,0,0,0,113.787,14.625Z" transform="translate(915.02 1089.907) rotate(49)"/>
    <path id="Icon_awesome-minus-7" data-name="Icon awesome-minus" d="M113.787,14.625H8.753A8.754,8.754,0,0,0,0,23.378v8.753a8.754,8.754,0,0,0,8.753,8.753H113.787a8.754,8.754,0,0,0,8.753-8.753V23.378A8.754,8.754,0,0,0,113.787,14.625Z" transform="translate(2626 1180.603)"/>
    <path id="Icon_awesome-times" data-name="Icon awesome-times" d="M65.427,52.189,92.4,25.713a8.214,8.214,0,0,0,0-11.768L86.407,8.062a8.593,8.593,0,0,0-11.99,0L47.442,34.537,20.468,8.062a8.593,8.593,0,0,0-11.99,0L2.483,13.946a8.214,8.214,0,0,0,0,11.768L29.457,52.189,2.483,78.664a8.214,8.214,0,0,0,0,11.768l5.995,5.884a8.593,8.593,0,0,0,11.99,0L47.442,69.84,74.417,96.316a8.593,8.593,0,0,0,11.99,0L92.4,90.432a8.214,8.214,0,0,0,0-11.768Z" transform="translate(61 684.375)"/>
    <path id="Icon_awesome-times-2" data-name="Icon awesome-times" d="M65.427,52.189,92.4,25.713a8.214,8.214,0,0,0,0-11.768L86.407,8.062a8.593,8.593,0,0,0-11.99,0L47.442,34.537,20.468,8.062a8.593,8.593,0,0,0-11.99,0L2.483,13.946a8.214,8.214,0,0,0,0,11.768L29.457,52.189,2.483,78.664a8.214,8.214,0,0,0,0,11.768l5.995,5.884a8.593,8.593,0,0,0,11.99,0L47.442,69.84,74.417,96.316a8.593,8.593,0,0,0,11.99,0L92.4,90.432a8.214,8.214,0,0,0,0-11.768Z" transform="translate(519 540.375)"/>
    <path id="Icon_awesome-times-3" data-name="Icon awesome-times" d="M65.427,52.189,92.4,25.713a8.214,8.214,0,0,0,0-11.768L86.407,8.062a8.593,8.593,0,0,0-11.99,0L47.442,34.537,20.468,8.062a8.593,8.593,0,0,0-11.99,0L2.483,13.946a8.214,8.214,0,0,0,0,11.768L29.457,52.189,2.483,78.664a8.214,8.214,0,0,0,0,11.768l5.995,5.884a8.593,8.593,0,0,0,11.99,0L47.442,69.84,74.417,96.316a8.593,8.593,0,0,0,11.99,0L92.4,90.432a8.214,8.214,0,0,0,0-11.768Z" transform="translate(1317 130.375)"/>
    <path id="Icon_awesome-times-4" data-name="Icon awesome-times" d="M65.427,52.189,92.4,25.713a8.214,8.214,0,0,0,0-11.768L86.407,8.062a8.593,8.593,0,0,0-11.99,0L47.442,34.537,20.468,8.062a8.593,8.593,0,0,0-11.99,0L2.483,13.946a8.214,8.214,0,0,0,0,11.768L29.457,52.189,2.483,78.664a8.214,8.214,0,0,0,0,11.768l5.995,5.884a8.593,8.593,0,0,0,11.99,0L47.442,69.84,74.417,96.316a8.593,8.593,0,0,0,11.99,0L92.4,90.432a8.214,8.214,0,0,0,0-11.768Z" transform="translate(1169 1215.375)"/>
    <path id="Icon_awesome-times-5" data-name="Icon awesome-times" d="M65.427,52.189,92.4,25.713a8.214,8.214,0,0,0,0-11.768L86.407,8.062a8.593,8.593,0,0,0-11.99,0L47.442,34.537,20.468,8.062a8.593,8.593,0,0,0-11.99,0L2.483,13.946a8.214,8.214,0,0,0,0,11.768L29.457,52.189,2.483,78.664a8.214,8.214,0,0,0,0,11.768l5.995,5.884a8.593,8.593,0,0,0,11.99,0L47.442,69.84,74.417,96.316a8.593,8.593,0,0,0,11.99,0L92.4,90.432a8.214,8.214,0,0,0,0-11.768Z" transform="translate(3223 1080.375)"/>
    <path id="Icon_awesome-times-6" data-name="Icon awesome-times" d="M65.427,52.189,92.4,25.713a8.214,8.214,0,0,0,0-11.768L86.407,8.062a8.593,8.593,0,0,0-11.99,0L47.442,34.537,20.468,8.062a8.593,8.593,0,0,0-11.99,0L2.483,13.946a8.214,8.214,0,0,0,0,11.768L29.457,52.189,2.483,78.664a8.214,8.214,0,0,0,0,11.768l5.995,5.884a8.593,8.593,0,0,0,11.99,0L47.442,69.84,74.417,96.316a8.593,8.593,0,0,0,11.99,0L92.4,90.432a8.214,8.214,0,0,0,0-11.768Z" transform="translate(2999 540.375)"/>
    <path id="Icon_awesome-times-7" data-name="Icon awesome-times" d="M65.427,52.189,92.4,25.713a8.214,8.214,0,0,0,0-11.768L86.407,8.062a8.593,8.593,0,0,0-11.99,0L47.442,34.537,20.468,8.062a8.593,8.593,0,0,0-11.99,0L2.483,13.946a8.214,8.214,0,0,0,0,11.768L29.457,52.189,2.483,78.664a8.214,8.214,0,0,0,0,11.768l5.995,5.884a8.593,8.593,0,0,0,11.99,0L47.442,69.84,74.417,96.316a8.593,8.593,0,0,0,11.99,0L92.4,90.432a8.214,8.214,0,0,0,0-11.768Z" transform="translate(2107 1189.375)"/>
    <path id="Icon_awesome-times-8" data-name="Icon awesome-times" d="M65.427,52.189,92.4,25.713a8.214,8.214,0,0,0,0-11.768L86.407,8.062a8.593,8.593,0,0,0-11.99,0L47.442,34.537,20.468,8.062a8.593,8.593,0,0,0-11.99,0L2.483,13.946a8.214,8.214,0,0,0,0,11.768L29.457,52.189,2.483,78.664a8.214,8.214,0,0,0,0,11.768l5.995,5.884a8.593,8.593,0,0,0,11.99,0L47.442,69.84,74.417,96.316a8.593,8.593,0,0,0,11.99,0L92.4,90.432a8.214,8.214,0,0,0,0-11.768Z" transform="translate(3223 130.375)"/>
    <path id="Icon_awesome-divide" data-name="Icon awesome-divide" d="M54.505,80.114A15.573,15.573,0,1,0,70.078,95.687,15.572,15.572,0,0,0,54.505,80.114Zm0-46.719A15.573,15.573,0,1,0,38.932,17.823,15.572,15.572,0,0,0,54.505,33.4Zm46.719,11.68H7.786A7.787,7.787,0,0,0,0,52.862v7.786a7.787,7.787,0,0,0,7.786,7.786h93.437a7.787,7.787,0,0,0,7.786-7.786V52.862A7.787,7.787,0,0,0,101.224,45.075Z" transform="translate(2052 226.75)"/>
    <path id="Icon_awesome-divide-2" data-name="Icon awesome-divide" d="M54.505,80.114A15.573,15.573,0,1,0,70.078,95.687,15.572,15.572,0,0,0,54.505,80.114Zm0-46.719A15.573,15.573,0,1,0,38.932,17.823,15.572,15.572,0,0,0,54.505,33.4Zm46.719,11.68H7.786A7.787,7.787,0,0,0,0,52.862v7.786a7.787,7.787,0,0,0,7.786,7.786h93.437a7.787,7.787,0,0,0,7.786-7.786V52.862A7.787,7.787,0,0,0,101.224,45.075Z" transform="matrix(0.883, 0.469, -0.469, 0.883, 1043.025, 441.805)"/>
    <path id="Icon_awesome-divide-3" data-name="Icon awesome-divide" d="M54.505,80.114A15.573,15.573,0,1,0,70.078,95.687,15.572,15.572,0,0,0,54.505,80.114Zm0-46.719A15.573,15.573,0,1,0,38.932,17.823,15.572,15.572,0,0,0,54.505,33.4Zm46.719,11.68H7.786A7.787,7.787,0,0,0,0,52.862v7.786a7.787,7.787,0,0,0,7.786,7.786h93.437a7.787,7.787,0,0,0,7.786-7.786V52.862A7.787,7.787,0,0,0,101.224,45.075Z" transform="matrix(0.809, -0.588, 0.588, 0.809, 2883.05, 958.626)"/>
    <path id="Icon_awesome-divide-4" data-name="Icon awesome-divide" d="M54.505,80.114A15.573,15.573,0,1,0,70.078,95.687,15.572,15.572,0,0,0,54.505,80.114Zm0-46.719A15.573,15.573,0,1,0,38.932,17.823,15.572,15.572,0,0,0,54.505,33.4Zm46.719,11.68H7.786A7.787,7.787,0,0,0,0,52.862v7.786a7.787,7.787,0,0,0,7.786,7.786h93.437a7.787,7.787,0,0,0,7.786-7.786V52.862A7.787,7.787,0,0,0,101.224,45.075Z" transform="translate(178.698 16.531) rotate(20)"/>
    <path id="Icon_awesome-divide-5" data-name="Icon awesome-divide" d="M54.505,80.114A15.573,15.573,0,1,0,70.078,95.687,15.572,15.572,0,0,0,54.505,80.114Zm0-46.719A15.573,15.573,0,1,0,38.932,17.823,15.572,15.572,0,0,0,54.505,33.4Zm46.719,11.68H7.786A7.787,7.787,0,0,0,0,52.862v7.786a7.787,7.787,0,0,0,7.786,7.786h93.437a7.787,7.787,0,0,0,7.786-7.786V52.862A7.787,7.787,0,0,0,101.224,45.075Z" transform="translate(559 1239.75)"/>
    <path id="Icon_awesome-divide-6" data-name="Icon awesome-divide" d="M54.505,80.114A15.573,15.573,0,1,0,70.078,95.687,15.572,15.572,0,0,0,54.505,80.114Zm0-46.719A15.573,15.573,0,1,0,38.932,17.823,15.572,15.572,0,0,0,54.505,33.4Zm46.719,11.68H7.786A7.787,7.787,0,0,0,0,52.862v7.786a7.787,7.787,0,0,0,7.786,7.786h93.437a7.787,7.787,0,0,0,7.786-7.786V52.862A7.787,7.787,0,0,0,101.224,45.075Z" transform="matrix(0.391, 0.921, -0.921, 0.391, 1696.451, 702.157)"/>
  </g>
</svg>
